# xmcd
#
# Track frame offsets:
#	150
#	11475
#	21751
#	32424
#	42757
#	53406
#	67881
#	77981
#	88096
#	97570
#	106816
#	117778
#	128694
#	140160
#	153561
#	166925
#	180782
#	192149
#	203379
#	215451
#	228373
#	239797
#	252296
#	262587
#	274670
#
# Disc length: 3819 seconds
#
# Revision: 0
# Processed by: cddbd v1.5.1PL2 Copyright (c) Steve Scherf et al.
# Submitted via: dBpowerAMP V4.0
#
DISCID=320ee919
DTITLE=Alma Cogan - The Voice
DYEAR=2005
DGENRE=Country
TTITLE0=Bell Bottom Blues
TTITLE1=This Ole House
TTITLE2=I Can't Tell A Waltz From A Tango
TTITLE3=Half As Much
TTITLE4=Take Me In Your Arms And Hold Me
TTITLE5=Little Things Mean A Lot
TTITLE6=Blue Tango
TTITLE7=What Am I Gonna Do Ma?
TTITLE8=Hug Me A Hug [feat Leslie Howard]
TTITLE9=If I Had A Golden Umbrella
TTITLE10=Isn't Life Wonderful? [feat Leslie Howard]
TTITLE11=Make Love To Me
TTITLE12=My Love My Love
TTITLE13=I Went To Your Wedding
TTITLE14=Pretty Bride
TTITLE15=Meet Me On The Corner
TTITLE16=Skokiaan
TTITLE17=Do Do Do It Again [feat Frankie Vaughan]
TTITLE18=Love Me Again
TTITLE19=Skinnie Minnie
TTITLE20=Over And Over Again
TTITLE21=If I Had A Penny
TTITLE22=Would You?
TTITLE23=Happy Valley Sweetheart
TTITLE24=Till I Waltz Again With You
EXTD=
EXTT0=
EXTT1=
EXTT2=
EXTT3=
EXTT4=
EXTT5=
EXTT6=
EXTT7=
EXTT8=
EXTT9=
EXTT10=
EXTT11=
EXTT12=
EXTT13=
EXTT14=
EXTT15=
EXTT16=
EXTT17=
EXTT18=
EXTT19=
EXTT20=
EXTT21=
EXTT22=
EXTT23=
EXTT24=
PLAYORDER=
